# AST/ASF file generated using VICON BodyLanguage
# -----------------------------------------------
:version 1.10
:name VICON
:units
  mass 1.0
  length 0.45
  angle deg
:documentation
   .ast/.asf automatically generated from VICON data using
   VICON BodyBuilder and BodyLanguage model FoxedUp or BRILLIANT.MOD
:root
   order TX TY TZ RX RY RZ
   axis XYZ
   position 0 0 0  
   orientation 0 0 0 
:bonedata
  begin
     id 1 
     name lhipjoint
     direction 0.692814 -0.645514 0.321437 
     length 2.38754 
     axis 0 0 0  XYZ
  end
  begin
     id 2 
     name lfemur
     direction 0.34202 -0.939693 0  
     length 6.41921  
     axis 0 0 20  XYZ
    dof rx ry rz
    limits (-160.0 20.0)
           (-70.0 70.0)
           (-60.0 70.0)
  end
  begin
     id 3 
     name ltibia
     direction 0.34202 -0.939693 0   
     length 6.98247   
     axis 0 0 20   XYZ
    dof rx
    limits (-10.0 170.0)
  end
  begin
     id 4 
     name lfoot
     direction 0.0947186 -0.260237 0.960888   
     length 1.83034   
     axis -90 7.62852e-016 20   XYZ
    dof rx rz
    limits (-45.0 90.0)
           (-70.0 20.0)
  end
  begin
     id 5 
     name ltoes
     direction 1.53538e-011 -4.21952e-011 1   
     length 0.920499   
     axis -90 7.62852e-016 20   XYZ
    dof rx
    limits (-90.0 20.0)
  end
  begin
     id 6 
     name rhipjoint
     direction -0.631686 -0.693949 0.345555   
     length 2.2209  
     axis 0 0 0  XYZ 
  end
  begin
     id 7 
     name rfemur
     direction -0.34202 -0.939693 0   
     length 6.49542   
     axis 0 0 -20   XYZ
    dof rx ry rz
    limits (-160.0 20.0)
           (-70.0 70.0)
           (-70.0 60.0)
  end
  begin
     id 8 
     name rtibia
     direction -0.34202 -0.939693 0   
     length 7.21712   
     axis 0 0 -20   XYZ
    dof rx
    limits (-10.0 170.0)
 end
 begin
     id 9 
     name rfoot
     direction -0.0825378 -0.226771 0.970444   
     length 1.89724  
     axis -90 -7.62852e-016 -20   XYZ
    dof rx rz
    limits (-45.0 90.0)
           (-20.0 70.0)
  end
  begin
     id 10 
     name rtoes
     direction -1.53515e-011 -4.22016e-011 1   
     length 0.955868   
     axis -90 -7.62852e-016 -20   XYZ
    dof rx
    limits (-90.0 20.0)
  end
  begin
     id 11 
     name lowerback
     direction -0.0104711 0.984802 -0.173368   
     length 1.84931   
     axis 0 0 0   XYZ
    dof rx ry rz
    limits (-20.0 45.0)
           (-30.0 30.0)
           (-30.0 30.0)
  end
  begin
     id 12 
     name upperback
     direction -0.00286433 0.999996 -0.000382853   
     length 1.85768   
     axis 0 0 0   XYZ
    dof rx ry rz
    limits (-20.0 45.0)
           (-30.0 30.0)
           (-30.0 30.0)
  end
  begin
     id 13 
     name thorax
     direction 0.00167534 0.996793 0.0800069   
     length 1.92   
     axis 0 0 0   XYZ
    dof rx ry rz
    limits (-20.0 45.0)
           (-30.0 30.0)
           (-30.0 30.0)
  end
  begin
     id 14 
     name lowerneck
     direction -0.0672491 0.995415 0.068018   
     length 1.58923   
     axis 0 0 0   XYZ
    dof rx ry rz
    limits (-20.0 45.0)
           (-30.0 30.0)
           (-30.0 30.0)
  end
  begin
     id 15 
     name upperneck
     direction 0.0958019 0.982476 -0.159884   
     length 1.60189   
     axis 0 0 0   XYZ
    dof rx ry rz
    limits (-20.0 45.0)
           (-30.0 30.0)
           (-30.0 30.0)
  end
  begin
     id 16
     name head
     direction 0.032989 0.997338 -0.0650226  
     length 1.61681  
     axis 0 0 0   XYZ
    dof rx ry rz
    limits (-20.0 45.0)
           (-30.0 30.0)
           (-30.0 30.0)
  end
  begin
     id 17 
     name lclavicle
     direction 0.954279 0.298875 -0.00496069  
     length 2.99449  
     axis 0 0 0   XYZ
    dof ry rz
    limits (-20.0 10.0)
           (0.0 20.0)
  end
  begin
     id 18 
     name lhumerus
     direction 1 -4.48985e-011 -4.2057e-027   
     length 4.79185   
     axis 180 -30 -90   XYZ
    dof rx ry rz
    limits (-60.0 90.0)
           (-90.0 90.0)
           (-90.0 90.0)
  end
  begin
     id 19
     name lradius
     direction 1 -4.48945e-011 1.15441e-028   
     length 2.65553   
     axis 180 -30 -90   XYZ
    dof rx
    limits (-10.0 170.0)
  end
  begin
     id 20
     name lwrist
     direction 1 -4.4899e-011 4.8894e-028   
     length 1.32777   
     axis -2.56392e-016 90 90   XYZ
    dof ry
    limits (-180.0 0.0)
 end
  begin
     id 21 
     name lhand
     direction 1 -4.48908e-011 9.7788e-028   
     length 0.743904   
     axis -6.23971e-016 90 90   XYZ
    dof rx rz
    limits (-90.0 90.0)
           (-45.0 45.0)
  end
  begin
     id 22 
     name lfingers
     direction 1 -4.49068e-011 1.95576e-027   
     length 0.599754   
     axis -1.24794e-015 90 90   XYZ
    dof rx
    limits (0.0 90.0)
  end
  begin
     id 23
     name lthumb
     direction 0.707107 -6.34883e-011 0.707107   
     length 0.861131   
     axis -90 45 2.85299e-015   XYZ
    dof rx rz
    limits (-45.0 45.0)
           (-45.0 45.0)
  end
  begin
     id 24 
     name rclavicle
     direction -0.957921 0.286916 0.00811568   
     length 3.06817  
     axis 0 0 0   XYZ 
    dof ry rz
    limits (-10.0 20.0)
           (-20.0 0.0)
  end
  begin
     id 25 
     name rhumerus
     direction -1 -4.48971e-011 -3.07942e-027  
     length 4.77254   
     axis 180 30 90   XYZ
    dof rx ry rz
    limits (-90.0 60.0)
           (-90.0 90.0)
           (-90.0 90.0)
  end
  begin
     id 26 
     name rradius
     direction -1 -4.48957e-011 -9.6815e-028   
     length 2.75995   
     axis 180 30 90   XYZ
    dof rx
    limits (-10.0 170.0)
  end
  begin
     id 27 
     name rwrist
     direction -1 -4.48979e-011 4.8894e-028   
     length 1.37997   
     axis -2.56392e-016 -90 -90   XYZ
    dof ry
    limits (-180.0 0.0)
  end
  begin
     id 28
     name rhand
     direction -1 -4.48906e-011 9.7788e-028   
     length 0.701619   
     axis -6.23971e-016 -90 -90   XYZ
    dof rx rz
    limits (-90.0 90.0)
           (-45.0 45.0)
  end
  begin
     id 29
     name rfingers
     direction -1 -4.49018e-011 1.95576e-027   
     length 0.565663   
     axis -1.24794e-015 -90 -90   XYZ
    dof rx
    limits (0.0 90.0)
  end
  begin
     id 30
     name rthumb
     direction -0.707107 -6.34881e-011 0.707107   
     length 0.812183   
     axis -90 -45 -2.85299e-015   XYZ
    dof rx rz
    limits (-45.0 45.0)
           (-45.0 45.0)
  end
:hierarchy
  begin
    root lhipjoint rhipjoint lowerback
    lhipjoint lfemur
    lfemur ltibia
    ltibia lfoot
    lfoot ltoes
    rhipjoint rfemur
    rfemur rtibia
    rtibia rfoot
    rfoot rtoes
    lowerback upperback
    upperback thorax
    thorax lowerneck lclavicle rclavicle
    lowerneck upperneck
    upperneck head
    lclavicle lhumerus
    lhumerus lradius
    lradius lwrist
    lwrist lhand lthumb
    lhand lfingers
    rclavicle rhumerus
    rhumerus rradius
    rradius rwrist
    rwrist rhand rthumb
    rhand rfingers
  end

#!OML:ASF F:\VICON\USERDATA\INSTALL\rory3\rory3.ASF
:FULLY-SPECIFIED
:DEGREES
417
root -0.363661 15.2217 -0.618305 -1.17508 18.2008 -8.04916
lowerback 20.433 2.75009 -9.26978
upperback 1.38161 0.700937 -8.19011
thorax -10.0083 0.557731 -4.05058
lowerneck -8.1466 -4.26279 -10.4947
upperneck 16.0892 -6.04699 10.6288
head 6.87188 -2.7227 4.67532
rclavicle -1.98785e-014 7.31528e-014
rhumerus -2.41971 -22.6878 14.7306
rradius 43.4814
rwrist -25.7641
rhand 16.4752 10.7933
rfingers 7.12502
rthumb 41.2384 -14.0468
lclavicle -1.98785e-014 7.31528e-014
lhumerus -12.275 15.4957 -6.20714
lradius 47.6078
lwrist 50.901
lhand 9.40168 18.7588
lfingers 7.12502
lthumb 34.5586 45.4168
rfemur -16.9775 -11.7192 26.6495
rtibia 44.0629
rfoot -22.2811 -11.1324
rtoes -11.7174
lfemur -26.7377 -8.57408 -4.23939
ltibia 46.5111
lfoot -14.6158 -14.3819
ltoes -5.25901
418
root -0.361157 15.2219 -0.631117 -1.08888 18.0863 -7.84908
lowerback 20.4386 2.7118 -9.23353
upperback 1.44109 0.675446 -8.08565
thorax -9.94372 0.545196 -3.94033
lowerneck -8.23229 -4.37351 -10.5759
upperneck 16.126 -6.23044 10.8918
head 6.93041 -2.79344 4.75866
rclavicle -1.59028e-014 -3.18055e-015
rhumerus -2.24564 -22.858 14.6344
rradius 43.4949
rwrist -25.7517
rhand 16.367 10.7984
rfingers 7.12502
rthumb 41.1368 -14.0743
lclavicle -1.59028e-014 -3.18055e-015
lhumerus -12.4072 15.6212 -6.20407
lradius 47.5765
lwrist 50.8846
lhand 9.22837 18.81
lfingers 7.12502
lthumb 34.3941 45.5054
rfemur -17.1114 -11.5598 26.4401
rtibia 44.1804
rfoot -22.2986 -11.0526
rtoes -11.6107
lfemur -26.7357 -8.55769 -4.46369
ltibia 46.465
lfoot -14.5684 -14.2725
ltoes -5.21191
419
root -0.359425 15.2226 -0.644329 -0.997493 17.975 -7.64849
lowerback 20.4076 2.67092 -9.26907
upperback 1.49301 0.638648 -7.93983
thorax -9.8686 0.53128 -3.73845
lowerneck -8.25284 -4.47825 -10.5806
upperneck 16.1559 -6.40408 11.0499
head 6.96899 -2.86464 4.7955
rclavicle 3.89618e-014 -2.22639e-014
rhumerus -1.8627 -23.2344 14.4123
rradius 43.3841
rwrist -25.606
rhand 16.313 10.9745
rfingers 7.12502
rthumb 41.0861 -13.9145
lclavicle 3.89618e-014 -2.22639e-014
lhumerus -12.7227 15.6631 -6.26748
lradius 47.6037
lwrist 50.9274
lhand 9.19598 18.7022
lfingers 7.12502
lthumb 34.3634 45.4045
rfemur -17.2591 -11.4377 26.235
rtibia 44.2827
rfoot -22.2885 -10.9927
rtoes -11.8576
lfemur -26.75 -8.51882 -4.6856
ltibia 46.4206
lfoot -14.4995 -14.2458
ltoes -5.34825
420
root -0.358026 15.2221 -0.656852 -0.92605 17.8599 -7.44922
lowerback 20.3554 2.65392 -9.31997
upperback 1.54471 0.633842 -7.78228
thorax -9.78238 0.532954 -3.52354
lowerneck -8.20541 -4.59977 -10.6913
upperneck 16.221 -6.61037 11.3024
head 7.01758 -2.95242 4.88038
rclavicle 3.26007e-014 -2.8625e-014
rhumerus -1.42548 -23.5899 14.1645
rradius 43.1588
rwrist -25.4756
rhand 16.0945 11.1212
rfingers 7.12502
rthumb 40.8808 -13.8329
lclavicle 3.26007e-014 -2.8625e-014
lhumerus -12.9588 15.6781 -6.29073
lradius 47.636
lwrist 51.0071
lhand 9.19537 18.7377
lfingers 7.12502
lthumb 34.3628 45.4402
rfemur -17.3776 -11.3365 26.031
rtibia 44.3794
rfoot -22.2439 -11.0327
rtoes -12.3965
lfemur -26.7302 -8.48622 -4.9122
ltibia 46.3668
lfoot -14.4996 -14.1848
ltoes -5.37771
421
root -0.356349 15.2214 -0.669059 -0.994517 17.7799 -7.4037
lowerback 20.4359 2.61258 -9.18148
upperback 1.60521 0.62101 -7.62237
thorax -9.7571 0.523381 -3.41645
lowerneck -8.13965 -4.72689 -10.8497
upperneck 16.273 -6.8428 11.6888
head 7.06881 -3.0462 5.01612
rclavicle 4.85035e-014 2.54444e-014
rhumerus -1.13383 -24.0387 13.8421
rradius 43.064
rwrist -25.2013
rhand 16.0543 11.2147
rfingers 7.12502
rthumb 40.8431 -13.7513
lclavicle 4.85035e-014 2.54444e-014
lhumerus -13.0816 15.7019 -6.35882
lradius 47.6517
lwrist 51.1348
lhand 9.12314 18.9532
lfingers 7.12502
lthumb 34.2942 45.6712
rfemur -17.3459 -11.2707 25.967
rtibia 44.4491
rfoot -22.2323 -11.1183
rtoes -12.6946
lfemur -26.6351 -8.47008 -4.9848
ltibia 46.3209
lfoot -14.4528 -14.1108
ltoes -5.19485
422
root -0.356546 15.2218 -0.681699 -1.0646 17.7103 -7.32009
lowerback 20.5487 2.58349 -9.09266
upperback 1.67097 0.609079 -7.46167
thorax -9.74429 0.516517 -3.2828
lowerneck -8.17815 -4.92644 -10.976
upperneck 16.4583 -7.15203 11.9049
head 7.18595 -3.18332 5.0814
rclavicle -3.81667e-014 6.04305e-014
rhumerus -0.642207 -24.7862 13.3313
rradius 42.8283
rwrist -24.5748
rhand 16.1674 11.2257
rfingers 7.12502
rthumb 40.9493 -13.7068
lclavicle -3.81667e-014 6.04305e-014
lhumerus -13.2044 15.8887 -6.33556
lradius 47.6848
lwrist 51.159
lhand 9.16624 19.0364
lfingers 7.12502
lthumb 34.3351 45.7452
rfemur -17.2996 -11.1701 25.8631
rtibia 44.508
rfoot -22.2893 -11.1214
rtoes -12.545
lfemur -26.5144 -8.45603 -5.10289
ltibia 46.263
lfoot -14.463 -14.0157
ltoes -5.53842
423
root -0.356297 15.2208 -0.694079 -1.02871 17.6304 -7.16611
lowerback 20.5551 2.54837 -9.04979
upperback 1.70291 0.587072 -7.33899
thorax -9.71139 0.506112 -3.16008
lowerneck -8.18351 -5.1171 -10.9854
upperneck 16.7074 -7.46114 12.041
head 7.31161 -3.31936 5.10093
rclavicle -3.18055e-014 3.49861e-014
rhumerus -0.153142 -25.2941 12.9456
rradius 42.5307
rwrist -24.281
rhand 16.2349 11.2908
rfingers 7.12502
rthumb 41.0128 -13.6216
lclavicle -3.18055e-014 3.49861e-014
lhumerus -13.2801 15.9886 -6.32891
lradius 47.67
lwrist 51.1856
lhand 9.40162 18.9719
lfingers 7.12502
lthumb 34.5586 45.6299
rfemur -17.3744 -11.105 25.6948
rtibia 44.5723
rfoot -22.2557 -11.1074
rtoes -12.9593
lfemur -26.4855 -8.4548 -5.28025
ltibia 46.2058
lfoot -14.3917 -13.9874
ltoes -5.5422
